<?xml version="1.0" standalone="no"?><!DOCTYPE svg PUBLIC "-//W3C//DTD SVG 1.1//EN" "http://www.w3.org/Graphics/SVG/1.1/DTD/svg11.dtd"><svg t="1536316774539" class="icon" style="" viewBox="0 0 1025 1024" version="1.1" xmlns="http://www.w3.org/2000/svg" p-id="3049" xmlns:xlink="http://www.w3.org/1999/xlink" width="32.03125" height="32"><defs><style type="text/css"></style></defs><path d="M513.852 144.914c-203.711 0-368.936 165.192-368.936 368.936 0 203.756 165.203 368.936 368.936 368.936 203.756 0 368.936-165.143 368.936-368.936 0.005-203.711-165.177-368.936-368.936-368.936zM665.109 616.241c6.27 6.218 10.153 14.838 10.153 24.363 0 0.025 0 0.050 0 0.076 0 0.003 0 0.008 0 0.017 0 19.086-15.472 34.558-34.558 34.558-9.555 0-18.204-3.877-24.46-10.146l-102.39-102.331-102.319 102.364c-6.255 6.272-14.905 10.153-24.462 10.153-0.016 0-0.031 0-0.046 0-19.061 0-34.558-15.463-34.558-34.598 0-0.018 0-0.037 0-0.056 0-9.517 3.866-18.129 10.115-24.354l102.379-102.435-102.355-102.349c-6.25-6.245-10.117-14.875-10.117-24.408 0-0.021 0-0.042 0-0.063 0-19.093 15.486-34.583 34.586-34.583 0.010 0 0.023 0 0.036 0 9.533 0 18.162 3.865 24.409 10.116l102.319 102.378 102.39-102.352c6.256-6.25 14.896-10.116 24.438-10.116 19.098 0 34.579 15.482 34.579 34.579 0 0.003 0 0.007 0 0.007 0 0.020 0 0.044 0 0.067 0 9.537-3.882 18.168-10.15 24.398l-102.321 102.321 102.33 102.396z" fill="#d81e06" p-id="3050"></path></svg>