<?xml version="1.0" standalone="no"?><!DOCTYPE svg PUBLIC "-//W3C//DTD SVG 1.1//EN" "http://www.w3.org/Graphics/SVG/1.1/DTD/svg11.dtd"><svg t="1536382786979" class="icon" style="" viewBox="0 0 1024 1024" version="1.1" xmlns="http://www.w3.org/2000/svg" p-id="2571" xmlns:xlink="http://www.w3.org/1999/xlink" width="128" height="128"><defs><style type="text/css"></style></defs><path d="M357.69617 360.89656l-15.285125 0c0 0-1.481747 15.589047-7.7935 27.936259l1.811252 1.700735C338.21242 384.221802 343.042425 374.398062 357.69617 360.89656z" p-id="2572" fill="#1296db"></path><path d="M410.878416 460.951347l35.347043 33.42425L446.225459 430.105828C446.225459 430.105828 427.261549 451.456089 410.878416 460.951347z" p-id="2573" fill="#1296db"></path><path d="M331.213006 425.990091c0 0-20.361747-9.110495-33.589003 15.312754l0 151.643746-62.073754 126.178771c0 0 0 15.97381 10.180873 19.704784 0 0 17.810644 10.536984 27.223015 0l68.440765-129.636522c0 0 3.045359-1.537006-1.016143-41.987277l2.031263-74.093509 93.632517 74.093509 8.150634 158.010757c0 0 6.092765 20.034289 23.408129 17.673521 0 0 22.366404 5.762237 24.423249-23.763217l-4.364401-146.267295L331.213006 425.990091z" p-id="2574" fill="#1296db"></path><path d="M508.324796 322.203306c-3.045359-25.465998-19.345604-24.423249-19.345604-24.423249L295.594787 297.780057c-21.37789 0-22.639626 14.379499-22.639626 14.379499l0.246617 43.852764c-2.031263 18.441001 8.286734 25.302269 15.587 28.101012-8.287757-9.607822-11.580756-20.36277-6.77838-25.411763 5.405103-5.708002 18.687618-1.978051 29.636994 8.397251l7.519254 7.080256c1.180895-2.303462 1.866511-4.115738 1.866511-4.115738l2.057869-31.229259 78.868255 0-37.870516 42.425252c-18.029632 20.3597 0 31.446199 0 31.446199l22.091134 21.461801c16.273638 15.257495 26.454512 0 26.454512 0l53.951773-59.055001c0 0-1.481747 103.839996 0.740874 139.186016L488.320183 534.165836c13.392008-2.908236 20.005636-15.145955 20.004613-15.146978L508.324796 322.203306z" p-id="2575" fill="#1296db"></path><path d="M592.792583 731.364103 623.389438 731.364103 602.973456 713.032596Z" p-id="2576" fill="#1296db"></path><path d="M549.022707 272.863574c27.635407 0 50.027393-22.39301 50.027393-49.999764 0-27.66099-22.391986-50.053999-50.027393-50.053999-27.634384 0-50.027393 22.39301-50.027393 50.053999C498.995313 250.470565 521.388323 272.863574 549.022707 272.863574z" p-id="2577" fill="#1296db"></path><path d="M529.075399 43.512003c-248.28683 0-449.583438 201.302749-449.583438 449.624371 0 248.295016 201.296609 449.594695 449.583438 449.594695 248.281713 0 449.63665-201.301725 449.63665-449.594695C978.711026 244.814752 777.357112 43.512003 529.075399 43.512003zM549.022707 151.405315c39.488363 0 71.486124 31.997762 71.486124 71.459518s-31.997762 71.459518-71.486124 71.459518c-39.461757 0-71.458495-31.997762-71.458495-71.459518S509.56095 151.405315 549.022707 151.405315zM549.021683 756.010433l48.111764-80.431867c-1.928932-1.330298-3.846608-2.870374-5.713119-4.638647l-82.518389-77.991282 7.847735 116.025527c-0.73985 34.630728-12.650111 41.712007-12.650111 41.712007-10.31902 19.316951-47.693232 15.97074-47.693232 15.97074-22.39301-4.391007-35.620265-37.32407-35.620265-37.32407l-6.092765-145.607262-49.835012-40.888246-0.768503 40.888246c3.348258 18.275225-5.378497 36.663014-5.378497 36.663014l-63.116503 122.501008c-17.316387 34.960233-55.982012 21.019733-55.982012 21.019733-36.661991-19.37528-27.469632-53.951773-27.469632-53.951773l60.812017-118.055766L272.95516 436.19757c4.143367-18.715247 19.785625-28.868491 33.726126-34.411741l-0.109494-0.107447-26.864858 1.920746c0 0-29.884634-6.641257-26.838252-47.584762l-0.220011-43.852764c0 0-0.822738-30.735002 43.962258-35.783994l194.398502 0c0 0 29.609365 5.378497 35.675524 35.783994l0 213.501582c0 0-9.467629 16.518209-22.200628 23.816428l3.815909 3.567245 0.107447 0.10847 102.607936 97.033987c0.849344 0.769526 1.372254 1.647523 2.140757 2.526543l38.666648-55.707766c0 0 14.268982-20.801768 41.739637-24.149003l15.256472 0c0 0 22.390963 0.76748 43.768853 24.149003l101.782128 159.001317 0 0.002047L549.021683 756.011456z" p-id="2578" fill="#1296db"></path><path d="M678.303118 603.100858l-51.345412 68.221778 30.981618 24.477484c0 0 14.268982 18.275225-13.227256 35.56603l167.918407 0-78.045517-120.087029C734.585983 611.279121 709.860858 579.667146 678.303118 603.100858z" p-id="2579" fill="#1296db"></path><path d="M597.514117 675.833369l36.002982 37.199227 6.227842-4.062526-27.496238-27.440979C607.803461 681.178097 602.633718 679.278841 597.514117 675.833369z" p-id="2580" fill="#1296db"></path></svg>